<svg width="109" height="119" viewBox="0 0 109 119" fill="none" xmlns="http://www.w3.org/2000/svg">
<path d="M13.1484 109.281C12.1641 109.281 11.4375 109.076 10.9688 108.666C10.5 108.256 10.2656 107.6 10.2656 106.697V84.373C9.89062 84.4082 9.42188 84.4785 8.85938 84.584C8.30859 84.6777 7.72852 84.8184 7.11914 85.0059C6.50977 85.1934 5.90039 85.4219 5.29102 85.6914C4.68164 85.9492 4.13672 86.2539 3.65625 86.6055C3.17578 86.9453 2.7832 87.332 2.47852 87.7656C2.17383 88.1992 2.02148 88.6797 2.02148 89.207C2.02148 89.582 2.06836 89.8809 2.16211 90.1035C2.26758 90.3262 2.38477 90.4961 2.51367 90.6133C2.64258 90.7188 2.77148 90.7891 2.90039 90.8242C3.04102 90.8477 3.14062 90.8594 3.19922 90.8594C3.49219 90.8594 3.73242 90.8125 3.91992 90.7188C4.10742 90.6133 4.27734 90.5078 4.42969 90.4023C4.58203 90.2852 4.72266 90.1797 4.85156 90.0859C4.99219 89.9805 5.15039 89.9277 5.32617 89.9277C5.4668 89.9277 5.61328 89.9629 5.76562 90.0332C5.92969 90.0918 6.07617 90.1914 6.20508 90.332C6.3457 90.4727 6.46289 90.6602 6.55664 90.8945C6.65039 91.1172 6.69727 91.3926 6.69727 91.7207C6.69727 92.1895 6.60352 92.5938 6.41602 92.9336C6.24023 93.2734 6.00586 93.5605 5.71289 93.7949C5.43164 94.0176 5.10352 94.1875 4.72852 94.3047C4.36523 94.4102 4.00195 94.4629 3.63867 94.4629C3.07617 94.4629 2.56641 94.3691 2.10938 94.1816C1.66406 93.9824 1.2832 93.7129 0.966797 93.373C0.650391 93.0332 0.410156 92.6348 0.246094 92.1777C0.0820313 91.7207 0 91.2344 0 90.7188C0 89.3477 0.375 88.1641 1.125 87.168C1.88672 86.1602 2.92383 85.3281 4.23633 84.6719C5.54883 84.0039 7.07812 83.5117 8.82422 83.1953C10.5703 82.8789 12.4395 82.7207 14.4316 82.7207C15.3809 82.7207 16.3066 82.7324 17.209 82.7559C18.1113 82.7676 18.9316 82.791 19.6699 82.8262C20.4199 82.8613 21.0645 82.9023 21.6035 82.9492C22.1426 82.9961 22.5352 83.0488 22.7812 83.1074C23.0156 83.166 23.2031 83.2539 23.3438 83.3711C23.4844 83.4766 23.5898 83.5996 23.6602 83.7402C23.7305 83.8809 23.7773 84.0332 23.8008 84.1973C23.8242 84.3496 23.8359 84.5078 23.8359 84.6719C23.8359 84.8008 23.8184 84.9531 23.7832 85.1289C23.748 85.293 23.6953 85.4512 23.625 85.6035C23.5547 85.7559 23.4668 85.8848 23.3613 85.9902C23.2559 86.0957 23.127 86.1484 22.9746 86.1484C22.8809 86.1484 22.7812 86.1074 22.6758 86.0254C22.582 85.9434 22.4473 85.8438 22.2715 85.7266C22.0957 85.6094 21.8555 85.4746 21.5508 85.3223C21.2578 85.1699 20.8652 85.0293 20.373 84.9004C19.8926 84.7715 19.2949 84.6543 18.5801 84.5488C17.877 84.4434 17.0215 84.373 16.0137 84.3379V106.697C16.0137 107.6 15.7793 108.256 15.3105 108.666C14.8418 109.076 14.1211 109.281 13.1484 109.281ZM37.7754 105.941C37.7754 106.047 37.7812 106.164 37.793 106.293C37.8047 106.41 37.834 106.527 37.8809 106.645C37.9277 106.75 37.998 106.838 38.0918 106.908C38.1855 106.979 38.3203 107.014 38.4961 107.014C38.7188 107.014 38.918 106.938 39.0938 106.785C39.2695 106.621 39.4336 106.457 39.5859 106.293L40.0078 106.662C39.832 106.908 39.6094 107.184 39.3398 107.488C39.082 107.781 38.7656 108.062 38.3906 108.332C38.0156 108.602 37.5879 108.824 37.1074 109C36.627 109.188 36.082 109.281 35.4727 109.281C34.957 109.281 34.5059 109.211 34.1191 109.07C33.7441 108.941 33.4219 108.766 33.1523 108.543C32.8945 108.309 32.7012 108.039 32.5723 107.734C32.4434 107.418 32.3789 107.084 32.3789 106.732V105.941C31.793 106.574 31.1777 107.131 30.5332 107.611C30.252 107.822 29.9531 108.027 29.6367 108.227C29.3203 108.426 28.9922 108.607 28.6523 108.771C28.3125 108.924 27.9609 109.047 27.5977 109.141C27.2344 109.234 26.8711 109.281 26.5078 109.281C25.8047 109.281 25.2012 109.158 24.6973 108.912C24.2051 108.654 23.8066 108.32 23.502 107.91C23.1973 107.5 22.9746 107.037 22.834 106.521C22.6934 106.006 22.623 105.49 22.623 104.975V94.0938C22.623 93.9883 22.6172 93.877 22.6055 93.7598C22.5938 93.6309 22.5645 93.5137 22.5176 93.4082C22.4707 93.291 22.4004 93.1973 22.3066 93.127C22.2129 93.0566 22.0781 93.0215 21.9023 93.0215C21.6914 93.0215 21.4922 93.1035 21.3047 93.2676C21.1289 93.4199 20.9707 93.5781 20.8301 93.7422L20.3906 93.373C20.5664 93.127 20.7832 92.8574 21.041 92.5645C21.3105 92.2598 21.6328 91.9727 22.0078 91.7031C22.3828 91.4336 22.8105 91.2109 23.291 91.0352C23.7832 90.8477 24.3281 90.7539 24.9258 90.7539C25.4414 90.7539 25.8926 90.8242 26.2793 90.9648C26.666 91.0938 26.9883 91.2754 27.2461 91.5098C27.5039 91.7324 27.6973 92.002 27.8262 92.3184C27.9551 92.623 28.0195 92.9512 28.0195 93.3027V105.045C28.0195 105.209 28.043 105.379 28.0898 105.555C28.1484 105.719 28.2246 105.871 28.3184 106.012C28.4238 106.152 28.5527 106.27 28.7051 106.363C28.8574 106.445 29.0391 106.486 29.25 106.486C29.5898 106.486 29.9297 106.398 30.2695 106.223C30.6094 106.047 30.9199 105.842 31.2012 105.607C31.4824 105.361 31.7227 105.121 31.9219 104.887C32.1328 104.652 32.2852 104.477 32.3789 104.359V94.0938C32.3789 93.9883 32.373 93.877 32.3613 93.7598C32.3496 93.6309 32.3203 93.5137 32.2734 93.4082C32.2266 93.291 32.1562 93.1973 32.0625 93.127C31.9688 93.0566 31.834 93.0215 31.6582 93.0215C31.4473 93.0215 31.248 93.1035 31.0605 93.2676C30.8848 93.4199 30.7266 93.5781 30.5859 93.7422L30.1465 93.373C30.3223 93.127 30.5391 92.8574 30.7969 92.5645C31.0664 92.2598 31.3887 91.9727 31.7637 91.7031C32.1387 91.4336 32.5664 91.2109 33.0469 91.0352C33.5391 90.8477 34.084 90.7539 34.6816 90.7539C35.1973 90.7539 35.6484 90.8242 36.0352 90.9648C36.4219 91.0938 36.7441 91.2754 37.002 91.5098C37.2598 91.7324 37.4531 92.002 37.582 92.3184C37.7109 92.623 37.7754 92.9512 37.7754 93.3027V105.941ZM53.7188 84.2324C53.4023 84.2324 53.0332 84.2969 52.6113 84.4258C52.1895 84.5547 51.7559 84.8008 51.3105 85.1641C50.877 85.5156 50.4492 86.0137 50.0273 86.6582C49.6055 87.3027 49.2246 88.1406 48.8848 89.1719C48.5566 90.1914 48.2871 91.4336 48.0762 92.8984C47.877 94.3633 47.7773 96.0918 47.7773 98.084C47.7773 99.9824 47.877 101.629 48.0762 103.023C48.2871 104.418 48.5625 105.607 48.9023 106.592C49.2539 107.564 49.6523 108.361 50.0977 108.982C50.543 109.604 51.0117 110.084 51.5039 110.424C51.9961 110.775 52.4883 111.016 52.9805 111.145C53.4727 111.273 53.9355 111.338 54.3691 111.338C54.8262 111.338 55.2891 111.279 55.7578 111.162C56.2266 111.045 56.6836 110.875 57.1289 110.652C57.5859 110.43 58.0195 110.16 58.4297 109.844C58.8516 109.527 59.2383 109.164 59.5898 108.754L60.3809 109.545C60.0293 109.979 59.6074 110.418 59.1152 110.863C58.623 111.32 58.0488 111.73 57.3926 112.094C56.748 112.469 56.0215 112.773 55.2129 113.008C54.4043 113.242 53.5078 113.359 52.5234 113.359C50.9883 113.359 49.5586 113.066 48.2344 112.48C46.9219 111.895 45.7734 110.98 44.7891 109.738C43.8164 108.508 43.0488 106.926 42.4863 104.992C41.9355 103.059 41.6602 100.744 41.6602 98.0488C41.6602 95.5176 41.9531 93.2969 42.5391 91.3867C43.125 89.4766 43.9219 87.8828 44.9297 86.6055C45.9375 85.3164 47.1211 84.3496 48.4805 83.7051C49.8398 83.0488 51.2871 82.7207 52.8223 82.7207C53.8418 82.7207 54.7676 82.8203 55.5996 83.0195C56.4434 83.207 57.1699 83.4883 57.7793 83.8633C58.3887 84.2266 58.8574 84.6836 59.1855 85.2344C59.5254 85.7734 59.6953 86.3887 59.6953 87.0801C59.6953 87.3965 59.6426 87.7305 59.5371 88.082C59.4316 88.4219 59.2676 88.7383 59.0449 89.0312C58.834 89.3125 58.5703 89.5469 58.2539 89.7344C57.9375 89.9102 57.5684 89.998 57.1465 89.998C56.7715 89.998 56.4785 89.916 56.2676 89.752C56.0684 89.5879 55.916 89.3711 55.8105 89.1016C55.7168 88.832 55.6523 88.5273 55.6172 88.1875C55.5938 87.8359 55.5762 87.4785 55.5645 87.1152C55.5527 86.752 55.5234 86.4004 55.4766 86.0605C55.4414 85.709 55.3594 85.3984 55.2305 85.1289C55.1133 84.8594 54.9375 84.6426 54.7031 84.4785C54.4688 84.3145 54.1406 84.2324 53.7188 84.2324ZM69.9434 99.8945C69.9434 99.6016 69.8496 99.3789 69.6621 99.2266C69.4746 99.0742 69.2344 98.998 68.9414 98.998C68.5312 98.998 68.1387 99.0918 67.7637 99.2793C67.4004 99.4668 67.0781 99.7422 66.7969 100.105C66.5156 100.469 66.293 100.92 66.1289 101.459C65.9648 101.986 65.8828 102.602 65.8828 103.305C65.8828 103.984 65.9297 104.547 66.0234 104.992C66.1289 105.438 66.2637 105.795 66.4277 106.064C66.6035 106.322 66.8027 106.504 67.0254 106.609C67.248 106.715 67.4824 106.768 67.7285 106.768C68.0332 106.768 68.3203 106.691 68.5898 106.539C68.8594 106.375 69.0938 106.17 69.293 105.924C69.4922 105.678 69.6504 105.402 69.7676 105.098C69.8848 104.793 69.9434 104.488 69.9434 104.184V99.8945ZM67.1484 92.1953C66.75 92.1953 66.3809 92.2422 66.041 92.3359C65.7012 92.4297 65.4082 92.5469 65.1621 92.6875C64.916 92.8281 64.7227 92.9863 64.582 93.1621C64.4414 93.3262 64.3711 93.4844 64.3711 93.6367C64.3711 93.8125 64.459 93.9414 64.6348 94.0234C64.8223 94.0938 65.0273 94.1816 65.25 94.2871C65.4727 94.3809 65.6719 94.5215 65.8477 94.709C66.0352 94.8848 66.1289 95.1602 66.1289 95.5352C66.1289 95.7812 66.0762 96.0098 65.9707 96.2207C65.877 96.4199 65.7422 96.6016 65.5664 96.7656C65.4023 96.918 65.2031 97.041 64.9688 97.1348C64.7461 97.2168 64.5117 97.2578 64.2656 97.2578C63.6094 97.2578 63.0762 97.0352 62.666 96.5898C62.2676 96.1445 62.0684 95.5527 62.0684 94.8145C62.0684 94.0996 62.2559 93.4902 62.6309 92.9863C63.0059 92.4707 63.4922 92.0488 64.0898 91.7207C64.6992 91.3926 65.3848 91.1523 66.1465 91C66.9082 90.8359 67.6699 90.7539 68.4316 90.7539C69.3457 90.7539 70.2188 90.8535 71.0508 91.0527C71.8828 91.252 72.6152 91.5684 73.248 92.002C73.8926 92.4355 74.4023 92.9863 74.7773 93.6543C75.1641 94.3223 75.3574 95.1309 75.3574 96.0801V106.012C75.3574 106.117 75.3633 106.234 75.375 106.363C75.3867 106.492 75.416 106.609 75.4629 106.715C75.5098 106.82 75.5801 106.908 75.6738 106.979C75.7676 107.049 75.9023 107.084 76.0781 107.084C76.2891 107.084 76.4824 107.008 76.6582 106.855C76.8457 106.691 77.0098 106.527 77.1504 106.363L77.5898 106.732C77.4141 106.979 77.2031 107.248 76.957 107.541C76.7109 107.834 76.4121 108.109 76.0605 108.367C75.709 108.625 75.2988 108.842 74.8301 109.018C74.3613 109.193 73.8281 109.281 73.2305 109.281C72.4922 109.281 71.8359 109.064 71.2617 108.631C70.6875 108.186 70.3125 107.506 70.1367 106.592C69.7617 107.096 69.3691 107.518 68.959 107.857C68.5605 108.197 68.1504 108.473 67.7285 108.684C67.3066 108.895 66.8789 109.047 66.4453 109.141C66.0234 109.234 65.5957 109.281 65.1621 109.281C64.5996 109.281 64.0547 109.193 63.5273 109.018C63 108.842 62.5254 108.566 62.1035 108.191C61.6934 107.805 61.3594 107.307 61.1016 106.697C60.8555 106.088 60.7324 105.344 60.7324 104.465C60.7324 103.398 60.9434 102.525 61.3652 101.846C61.7871 101.166 62.3379 100.598 63.0176 100.141C63.709 99.6719 64.4883 99.2734 65.3555 98.9453C66.2344 98.6172 67.1309 98.2715 68.0449 97.9082C68.7246 97.6387 69.2168 97.2402 69.5215 96.7129C69.8379 96.1738 69.9961 95.623 69.9961 95.0605C69.9961 94.1934 69.7383 93.502 69.2227 92.9863C68.7188 92.459 68.0273 92.1953 67.1484 92.1953ZM85.6055 92.1602C85.3359 92.1602 85.0781 92.1953 84.832 92.2656C84.5977 92.3359 84.3867 92.4531 84.1992 92.6172C84.0117 92.7695 83.8652 92.9688 83.7598 93.2148C83.6543 93.4492 83.6016 93.7305 83.6016 94.0586C83.6016 94.5156 83.7656 94.9727 84.0938 95.4297C84.4336 95.875 84.8496 96.3438 85.3418 96.8359C85.8457 97.3164 86.3848 97.8203 86.959 98.3477C87.5449 98.8633 88.084 99.4141 88.5762 100C89.0801 100.574 89.4961 101.189 89.8242 101.846C90.1641 102.502 90.334 103.205 90.334 103.955C90.334 104.799 90.1875 105.549 89.8945 106.205C89.6133 106.861 89.2031 107.418 88.6641 107.875C88.1367 108.332 87.4922 108.684 86.7305 108.93C85.9805 109.164 85.1426 109.281 84.2168 109.281C83.4082 109.281 82.6758 109.17 82.0195 108.947C81.3633 108.713 80.7773 108.432 80.2617 108.104C79.7578 107.764 79.3242 107.406 78.9609 107.031C78.5977 106.656 78.3164 106.316 78.1172 106.012L78.7324 105.572C78.8848 105.748 79.0781 105.941 79.3125 106.152C79.5469 106.352 79.8047 106.539 80.0859 106.715C80.3789 106.891 80.6895 107.037 81.0176 107.154C81.3457 107.26 81.6797 107.312 82.0195 107.312C82.8633 107.312 83.5547 107.113 84.0938 106.715C84.6328 106.305 84.9023 105.701 84.9023 104.904C84.9023 104.459 84.7559 104.002 84.4629 103.533C84.1699 103.053 83.8008 102.561 83.3555 102.057C82.9102 101.553 82.4297 101.031 81.9141 100.492C81.3984 99.9531 80.918 99.3965 80.4727 98.8223C80.0273 98.248 79.6582 97.6562 79.3652 97.0469C79.0723 96.4375 78.9258 95.8047 78.9258 95.1484C78.9258 94.4102 79.0723 93.7656 79.3652 93.2148C79.6699 92.6641 80.0684 92.207 80.5605 91.8438C81.0645 91.4805 81.6328 91.2109 82.2656 91.0352C82.9102 90.8477 83.5723 90.7539 84.252 90.7539C85.0371 90.7539 85.752 90.8242 86.3965 90.9648C87.041 91.1055 87.5918 91.3223 88.0488 91.6152C88.5176 91.8965 88.875 92.2539 89.1211 92.6875C89.3789 93.1211 89.5078 93.625 89.5078 94.1992C89.5078 94.6445 89.3613 95.0312 89.0684 95.3594C88.7754 95.6875 88.3652 95.8516 87.8379 95.8516C87.334 95.8516 86.9473 95.7461 86.6777 95.5352C86.4199 95.3125 86.291 95.0137 86.291 94.6387C86.291 94.3926 86.3496 94.1992 86.4668 94.0586C86.5957 93.918 86.7363 93.8066 86.8887 93.7246C87.041 93.6309 87.1758 93.5547 87.293 93.4961C87.4219 93.4258 87.4863 93.3379 87.4863 93.2324C87.4863 92.9043 87.3105 92.6465 86.959 92.459C86.6074 92.2598 86.1562 92.1602 85.6055 92.1602ZM101.162 99.8945C101.162 99.6016 101.068 99.3789 100.881 99.2266C100.693 99.0742 100.453 98.998 100.16 98.998C99.75 98.998 99.3574 99.0918 98.9824 99.2793C98.6191 99.4668 98.2969 99.7422 98.0156 100.105C97.7344 100.469 97.5117 100.92 97.3477 101.459C97.1836 101.986 97.1016 102.602 97.1016 103.305C97.1016 103.984 97.1484 104.547 97.2422 104.992C97.3477 105.438 97.4824 105.795 97.6465 106.064C97.8223 106.322 98.0215 106.504 98.2441 106.609C98.4668 106.715 98.7012 106.768 98.9473 106.768C99.252 106.768 99.5391 106.691 99.8086 106.539C100.078 106.375 100.312 106.17 100.512 105.924C100.711 105.678 100.869 105.402 100.986 105.098C101.104 104.793 101.162 104.488 101.162 104.184V99.8945ZM98.3672 92.1953C97.9688 92.1953 97.5996 92.2422 97.2598 92.3359C96.9199 92.4297 96.627 92.5469 96.3809 92.6875C96.1348 92.8281 95.9414 92.9863 95.8008 93.1621C95.6602 93.3262 95.5898 93.4844 95.5898 93.6367C95.5898 93.8125 95.6777 93.9414 95.8535 94.0234C96.041 94.0938 96.2461 94.1816 96.4688 94.2871C96.6914 94.3809 96.8906 94.5215 97.0664 94.709C97.2539 94.8848 97.3477 95.1602 97.3477 95.5352C97.3477 95.7812 97.2949 96.0098 97.1895 96.2207C97.0957 96.4199 96.9609 96.6016 96.7852 96.7656C96.6211 96.918 96.4219 97.041 96.1875 97.1348C95.9648 97.2168 95.7305 97.2578 95.4844 97.2578C94.8281 97.2578 94.2949 97.0352 93.8848 96.5898C93.4863 96.1445 93.2871 95.5527 93.2871 94.8145C93.2871 94.0996 93.4746 93.4902 93.8496 92.9863C94.2246 92.4707 94.7109 92.0488 95.3086 91.7207C95.918 91.3926 96.6035 91.1523 97.3652 91C98.127 90.8359 98.8887 90.7539 99.6504 90.7539C100.564 90.7539 101.438 90.8535 102.27 91.0527C103.102 91.252 103.834 91.5684 104.467 92.002C105.111 92.4355 105.621 92.9863 105.996 93.6543C106.383 94.3223 106.576 95.1309 106.576 96.0801V106.012C106.576 106.117 106.582 106.234 106.594 106.363C106.605 106.492 106.635 106.609 106.682 106.715C106.729 106.82 106.799 106.908 106.893 106.979C106.986 107.049 107.121 107.084 107.297 107.084C107.508 107.084 107.701 107.008 107.877 106.855C108.064 106.691 108.229 106.527 108.369 106.363L108.809 106.732C108.633 106.979 108.422 107.248 108.176 107.541C107.93 107.834 107.631 108.109 107.279 108.367C106.928 108.625 106.518 108.842 106.049 109.018C105.58 109.193 105.047 109.281 104.449 109.281C103.711 109.281 103.055 109.064 102.48 108.631C101.906 108.186 101.531 107.506 101.355 106.592C100.98 107.096 100.588 107.518 100.178 107.857C99.7793 108.197 99.3691 108.473 98.9473 108.684C98.5254 108.895 98.0977 109.047 97.6641 109.141C97.2422 109.234 96.8145 109.281 96.3809 109.281C95.8184 109.281 95.2734 109.193 94.7461 109.018C94.2188 108.842 93.7441 108.566 93.3223 108.191C92.9121 107.805 92.5781 107.307 92.3203 106.697C92.0742 106.088 91.9512 105.344 91.9512 104.465C91.9512 103.398 92.1621 102.525 92.584 101.846C93.0059 101.166 93.5566 100.598 94.2363 100.141C94.9277 99.6719 95.707 99.2734 96.5742 98.9453C97.4531 98.6172 98.3496 98.2715 99.2637 97.9082C99.9434 97.6387 100.436 97.2402 100.74 96.7129C101.057 96.1738 101.215 95.623 101.215 95.0605C101.215 94.1934 100.957 93.502 100.441 92.9863C99.9375 92.459 99.2461 92.1953 98.3672 92.1953Z" fill="#F3F2EA"/>
<path d="M60.101 60.34C60.1728 52.9972 58.3112 47.026 55.9432 47.0028C53.575 46.9797 51.5971 52.9135 51.5254 60.2562C51.4536 67.5991 53.3152 73.5704 55.6832 73.5935C58.0514 73.6167 60.0293 67.6829 60.101 60.34Z" fill="#F3F2EA"/>
<path d="M46.3669 58.6723C50.3975 52.5341 52.06 46.5043 50.0805 45.2045C48.1008 43.9046 43.2287 47.8269 39.1983 53.9651C35.1677 60.1034 33.5051 66.133 35.4847 67.433C37.4643 68.7328 42.3363 64.8106 46.3669 58.6723Z" fill="#F3F2EA"/>
<path d="M35.6984 49.8656C42.4079 46.8813 47.0666 42.7078 46.104 40.544C45.1416 38.3802 38.9224 39.0454 32.213 42.0299C25.5036 45.0142 20.8449 49.1877 21.8073 51.3515C22.7698 53.5154 28.9891 52.8501 35.6984 49.8656Z" fill="#F3F2EA"/>
<path d="M45.2989 34.476C45.6592 32.1354 40.0677 29.3324 32.8101 28.2152C25.5523 27.0981 19.3767 28.0901 19.0165 30.4308C18.6562 32.7714 24.2477 35.5743 31.5054 36.6914C38.7631 37.8085 44.9387 36.8165 45.2989 34.476Z" fill="#F3F2EA"/>
<path d="M47.9047 28.9C49.473 27.1256 46.2839 21.745 40.7816 16.8821C35.2794 12.0192 29.5476 9.51563 27.9793 11.2901C26.411 13.0647 29.6001 18.4453 35.1024 23.3082C40.6047 28.1711 46.3365 30.6746 47.9047 28.9Z" fill="#F3F2EA"/>
<path d="M53.094 25.6413C55.3727 24.9965 55.5991 18.7458 53.5998 11.6801C51.6004 4.61436 48.1322 -0.590823 45.8535 0.0539935C43.5748 0.69881 43.3484 6.94943 45.3478 14.0152C47.3471 21.0808 50.8153 26.2861 53.094 25.6413Z" fill="#F3F2EA"/>
<path d="M67.1853 14.2351C69.3237 7.21011 69.2207 0.956217 66.9551 0.266601C64.6895 -0.423031 61.1194 4.71274 58.981 11.7377C56.8427 18.7626 56.9458 25.0165 59.2114 25.7061C61.477 26.3957 65.0471 21.26 67.1853 14.2351Z" fill="#F3F2EA"/>
<path d="M77.254 23.7272C82.8503 18.9728 86.144 13.6555 84.6106 11.8508C83.0773 10.046 77.2976 12.4371 71.7015 17.1914C66.1052 21.9458 62.8116 27.263 64.3448 29.0678C65.8781 30.8727 71.6578 28.4816 77.254 23.7272Z" fill="#F3F2EA"/>
<path d="M80.5832 37.1598C87.8616 36.1861 93.5072 33.4939 93.1931 31.1466C92.8792 28.7994 86.7243 27.6859 79.4459 28.6595C72.1677 29.6333 66.5219 32.3254 66.836 34.6728C67.1501 37.02 73.3048 38.1336 80.5832 37.1598Z" fill="#F3F2EA"/>
<path d="M89.9724 52.0224C90.9774 49.8781 86.4019 45.6136 79.7526 42.4975C73.1035 39.3813 66.8985 38.5936 65.8935 40.738C64.8886 42.8824 69.4641 47.1469 76.1134 50.2631C82.7625 53.3791 88.9675 54.1669 89.9724 52.0224Z" fill="#F3F2EA"/>
<path d="M75.986 67.8446C77.9908 66.5842 76.4475 60.5227 72.5388 54.3063C68.6302 48.0898 63.8363 44.0723 61.8315 45.3328C59.8267 46.5933 61.37 52.6547 65.2787 58.8712C69.1873 65.0877 73.9812 69.1053 75.986 67.8446Z" fill="#F3F2EA"/>
</svg>
